<svg xmlns="http://www.w3.org/2000/svg" width="35.165" height="40.897" viewBox="0 0 35.165 40.897">
  <g id="candy3" transform="translate(-6419.25 -2177.285)">
    <path id="Path_11738" data-name="Path 11738" d="M6454.415,2208.031v-20.3l-17.583-10.151-17.583,10.151v20.3l17.583,10.151Z" opacity="0.3"/>
    <g id="Group_11068" data-name="Group 11068">
      <g id="Group_11065" data-name="Group 11065">
        <path id="Path_11739" data-name="Path 11739" d="M6435.69,2177.285l-16.05,9.267v18.534l16.05,9.267,16.051-9.267v-18.534Z" fill="#fff"/>
        <g id="Group_11064" data-name="Group 11064">
          <g id="Group_11063" data-name="Group 11063">
            <path id="Path_11740" data-name="Path 11740" d="M6435.691,2214.352l-16.051-9.266v-18.534l16.051-9.267,16.05,9.267v18.534Zm-13.869-10.526,13.869,8.007,13.868-8.007v-16.014l-13.868-8.007-13.869,8.007Z" fill="#0069d1"/>
          </g>
          <path id="Path_11741" data-name="Path 11741" d="M6435.691,2182l-11.969,6.91v13.82l11.969,6.91,11.968-6.91v-13.82Zm9.822,8.149v11.342l-9.822,5.671-9.823-5.671v-11.342l9.823-5.671Z" fill="#0069d1"/>
          <path id="Path_11742" data-name="Path 11742" d="M6435.691,2182l-11.969,6.91v13.82l11.969,6.91,11.968-6.91v-13.82Zm9.822,8.149v11.342l-9.822,5.671-9.823-5.671v-11.342l9.823-5.671Z" fill="#0069d1"/>
          <path id="Path_11743" data-name="Path 11743" d="M6435.691,2186.927l-7.7,4.446v8.892l7.7,4.446,7.7-4.446v-8.892Zm5.813,5.536v6.712l-5.813,3.356-5.814-3.356v-6.712l5.814-3.357Z" fill="#0069d1"/>
          <path id="Path_11744" data-name="Path 11744" d="M6435.47,2192.928l-2.319,1.339v2.678l2.319,1.339,2.32-1.339v-2.678Z" fill="#0069d1"/>
        </g>
      </g>
      <g id="Group_11066" data-name="Group 11066" opacity="0.32" style="mix-blend-mode: screen;isolation: isolate">
        <path id="Path_11745" data-name="Path 11745" d="M6450.922,2186.068l-14.707-8.491-.447,17.242Z" fill="#0069d1"/>
        <path id="Path_11746" data-name="Path 11746" d="M6420.176,2205.373l15.258,8.89-.263-18.074Z" fill="#0069d1"/>
      </g>
      <g id="Group_11067" data-name="Group 11067" opacity="0.24" style="mix-blend-mode: multiply;isolation: isolate">
        <path id="Path_11747" data-name="Path 11747" d="M6451.389,2204.254V2187.5l-14.952,8.123Z" fill="#0069d1"/>
        <path id="Path_11748" data-name="Path 11748" d="M6419.728,2187.508l-.069,17.421,15.313-9.14Z" fill="#0069d1"/>
      </g>
    </g>
  </g>
</svg>
