<svg xmlns="http://www.w3.org/2000/svg" width="35.468" height="40.949" viewBox="0 0 35.468 40.949">
  <g id="candy4" transform="translate(-6288.365 -2176.637)">
    <path id="Path_11620" data-name="Path 11620" d="M6323.833,2207.436v-20.3l-17.583-10.151-17.583,10.151v20.3l17.583,10.151Z" opacity="0.3"/>
    <g id="Group_10972" data-name="Group 10972">
      <g id="Group_10969" data-name="Group 10969">
        <path id="Path_11621" data-name="Path 11621" d="M6304.415,2176.637l-16.05,9.267v18.534l16.05,9.267,16.051-9.267V2185.9Z" fill="#fff"/>
        <g id="Group_10968" data-name="Group 10968">
          <g id="Group_10967" data-name="Group 10967">
            <path id="Path_11622" data-name="Path 11622" d="M6304.415,2213.705l-16.05-9.267V2185.9l16.05-9.266,16.051,9.266v18.534Zm-13.869-10.527,13.869,8.007,13.869-8.007v-16.014l-13.869-8.007-13.869,8.007Z" fill="#d071af"/>
          </g>
          <path id="Path_11623" data-name="Path 11623" d="M6304.415,2181.351l-11.968,6.91v13.82l11.968,6.91,11.968-6.91v-13.82Zm9.823,8.149v11.342l-9.823,5.671-9.822-5.671V2189.5l9.822-5.671Z" fill="#d071af"/>
          <path id="Path_11624" data-name="Path 11624" d="M6304.415,2181.351l-11.968,6.91v13.82l11.968,6.91,11.968-6.91v-13.82Zm9.823,8.149v11.342l-9.823,5.671-9.822-5.671V2189.5l9.822-5.671Z" fill="#d071af"/>
          <path id="Path_11625" data-name="Path 11625" d="M6304.415,2186.279l-7.7,4.446v8.892l7.7,4.446,7.7-4.446v-8.892Zm5.813,5.536v6.712l-5.813,3.357-5.813-3.357v-6.712l5.813-3.356Z" fill="#d071af"/>
          <path id="Path_11626" data-name="Path 11626" d="M6304.195,2192.28l-2.32,1.339v2.678l2.32,1.339,2.319-1.339v-2.678Z" fill="#d071af"/>
        </g>
      </g>
      <g id="Group_10970" data-name="Group 10970" opacity="0.32" style="mix-blend-mode: screen;isolation: isolate">
        <path id="Path_11627" data-name="Path 11627" d="M6319.647,2185.42l-14.707-8.491-.447,17.242Z" fill="#fff"/>
        <path id="Path_11628" data-name="Path 11628" d="M6288.9,2204.725l15.258,8.89-.263-18.074Z" fill="#fff"/>
      </g>
      <g id="Group_10971" data-name="Group 10971" opacity="0.24" style="mix-blend-mode: multiply;isolation: isolate">
        <path id="Path_11629" data-name="Path 11629" d="M6320.113,2203.606v-16.754l-14.952,8.123Z" fill="#d071af"/>
        <path id="Path_11630" data-name="Path 11630" d="M6288.453,2186.86l-.069,17.421,15.313-9.14Z" fill="#d071af"/>
      </g>
    </g>
  </g>
</svg>
