<svg xmlns="http://www.w3.org/2000/svg" width="35.165" height="40.896" viewBox="0 0 35.165 40.896">
  <g id="candy2" transform="translate(-6417.897 -2175.964)">
    <path id="Path_11653" data-name="Path 11653" d="M6453.062,2206.709v-20.3l-17.583-10.151-17.583,10.151v20.3l17.583,10.151Z" opacity="0.3"/>
    <g id="Group_10993" data-name="Group 10993">
      <g id="Group_10990" data-name="Group 10990">
        <path id="Path_11654" data-name="Path 11654" d="M6434.338,2175.964l-16.05,9.267v18.533l16.05,9.267,16.051-9.267v-18.533Z" fill="#fff"/>
        <g id="Group_10989" data-name="Group 10989">
          <g id="Group_10988" data-name="Group 10988">
            <path id="Path_11655" data-name="Path 11655" d="M6434.338,2213.031l-16.05-9.267v-18.533l16.05-9.267,16.051,9.267v18.533Zm-13.869-10.527,13.869,8.007,13.869-8.007V2186.49l-13.869-8.007-13.869,8.007Z" fill="#a7bc2a"/>
          </g>
          <path id="Path_11656" data-name="Path 11656" d="M6434.338,2180.678l-11.968,6.91v13.819l11.968,6.91,11.968-6.91v-13.819Zm9.823,8.148v11.342l-9.823,5.671-9.822-5.671v-11.342l9.822-5.671Z" fill="#a7bc2a"/>
          <path id="Path_11657" data-name="Path 11657" d="M6434.338,2180.678l-11.968,6.91v13.819l11.968,6.91,11.968-6.91v-13.819Zm9.823,8.148v11.342l-9.823,5.671-9.822-5.671v-11.342l9.822-5.671Z" fill="#a7bc2a"/>
          <path id="Path_11658" data-name="Path 11658" d="M6434.338,2185.606l-7.7,4.446v8.891l7.7,4.446,7.7-4.446v-8.891Zm5.813,5.535v6.713l-5.813,3.356-5.813-3.356v-6.713l5.813-3.356Z" fill="#a7bc2a"/>
          <path id="Path_11659" data-name="Path 11659" d="M6434.118,2191.606l-2.32,1.339v2.678l2.32,1.34,2.319-1.34v-2.678Z" fill="#a7bc2a"/>
        </g>
      </g>
      <g id="Group_10991" data-name="Group 10991" opacity="0.32" style="mix-blend-mode: screen;isolation: isolate">
        <path id="Path_11660" data-name="Path 11660" d="M6449.57,2184.746l-14.707-8.491-.447,17.242Z" fill="#fff"/>
        <path id="Path_11661" data-name="Path 11661" d="M6418.823,2204.052l15.258,8.89-.263-18.074Z" fill="#fff"/>
      </g>
      <g id="Group_10992" data-name="Group 10992" opacity="0.24" style="mix-blend-mode: multiply;isolation: isolate">
        <path id="Path_11662" data-name="Path 11662" d="M6450.036,2202.933v-16.754l-14.952,8.123Z" fill="#a7bc2a"/>
        <path id="Path_11663" data-name="Path 11663" d="M6418.375,2186.186l-.069,17.422,15.313-9.141Z" fill="#a7bc2a"/>
      </g>
    </g>
  </g>
</svg>
