<svg xmlns="http://www.w3.org/2000/svg" width="148.351" height="63.11" viewBox="0 0 148.351 63.11">
  <g id="time_bar_ic" transform="translate(-122 -52.5)">
    <g id="Group_11057" data-name="Group 11057" transform="translate(122 52.5)">
      <g id="Group_11044" data-name="Group 11044" transform="translate(1.398 7.203)" opacity="0.562">
        <path id="Path_11713" data-name="Path 11713" d="M1952.728,672.719c-.2-10.817-2.8-13.339-7.275-15.2l.01.025c-5.115-3.536-47.053-4.417-56.62-4.417-12.016,0-24.234.072-35.091.539a26.659,26.659,0,0,0-21.512-10.635h-.057c-14.506,0-26.268,11.175-26.268,24.96,0,.27.006.539.015.808,0,.075.006.151.009.226s.005.163.01.244c0,.036,0,.072,0,.109s-.013.054-.019.08c0,1.738-.147,3.158-.147,4.8,0,13.855,14.581,24.681,26.431,24.681,12.227,0,21.907-5.317,24.848-9.559,33.748.415,81.276-1.037,84.516-1.555.086-.014.169-.033.254-.049,0,0,0,.008,0,.011C1951.077,687.7,1952.841,678.974,1952.728,672.719Z" transform="translate(-1805.78 -643.029)" fill="#556528"/>
      </g>
      <g id="Group_11046" data-name="Group 11046" transform="translate(14.437 10.611)">
        <g id="Group_11045" data-name="Group 11045" transform="translate(0)">
          <path id="Path_11714" data-name="Path 11714" d="M2552.138,689.876s2.491,16.76.613,24.091c-1.525,2.373-5.37,4.594-5.212,4.935,9.232-.088,10.994-9.257,10.881-15.828-.2-11.365-2.8-14.016-7.264-15.974C2551.953,689.012,2551.346,689.146,2552.138,689.876Z" transform="translate(-2425.531 -682.485)" fill="#d98a0a"/>
          <path id="Path_11715" data-name="Path 11715" d="M2007.561,682.048c-4.939-1.03-101.1-1.687-113.33,2.855-7.4,1.539-9.41,8.034-7.506,20.144a43.093,43.093,0,0,0,1.869,6.407c.281.809,119.934,6.9,123.329-3.276C2015.079,703.039,2014.829,682.132,2007.561,682.048Z" transform="translate(-1884.475 -677.741)" fill="#f7da3c"/>
          <path id="Path_11716" data-name="Path 11716" d="M1885.475,696.249c-2.147.268-3.877-.659-5.148,1.025-5.281,5.068-2.529,24.239,1.273,28.259.309.416.759-.411.627-2.451-1.063-.905-2.027-4.14-2.25-5.332C1878.009,705.23,1879.18,699.462,1885.475,696.249Z" transform="translate(-1877.398 -689.953)" fill="#3edff9"/>
          <path id="Path_11717" data-name="Path 11717" d="M1993.416,667.194c4.346.362,10.249,1.063,13.118,4.813-.366-1.778-1.25-4.472-2.227-5.307-3.378-3.972-43.1-4.948-52.915-4.948-33.222,0-68,.578-71.152,8.964-1.941,4.381-2.567,11.639-.07,19.046.951,2.82,1.021,4.627,3.662,5.532-2.251-3-2.2-10.22-1.9-14.721a12.07,12.07,0,0,1,4.034-8.282,46.017,46.017,0,0,1,7.323-1.392,92.907,92.907,0,0,1,29.017-4.822C1946.132,665.084,1969.339,664.96,1993.416,667.194Z" transform="translate(-1878.325 -661.752)" fill="#c4ed5f"/>
          <path id="Path_11718" data-name="Path 11718" d="M2063.391,677.955c-17.483-2.617-57.813-2.444-76.415-1.189-9.749.212-18.066,2.38-27.4,5.691,7.141-.969,14.806-2.832,27.4-3.581,21.346-.62,61.239-1.221,77.423,1.217,5.714,1.039,8.737,3.348,9.08,5.36C2072.367,679.136,2067.18,678.688,2063.391,677.955Z" transform="translate(-1944.612 -673.31)" fill="#fff"/>
          <path id="Path_11719" data-name="Path 11719" d="M1890.427,692.321c-2.944-1.345-7.6.014-8.939,2.812-2.627,5.472-.373,14.425.481,18.25.149.642.581.617.525-.021-.208-3.829-.625-9.671,1.1-14.237.867-2.3,1.27-5.079,7.049-5.688C1891.1,693.491,1890.93,692.323,1890.427,692.321Z" transform="translate(-1879.734 -686.328)" fill="#cafeff"/>
          <path id="Path_11720" data-name="Path 11720" d="M1891.16,697.267c-2.679-.874-5.987,3.63-5.584,9.3-.037.438.282.86.482.1s1.088-5.994,3.575-7.513C1890.531,698.58,1891.481,697.524,1891.16,697.267Z" transform="translate(-1884.06 -690.712)" fill="#fffdff"/>
          <path id="Path_11721" data-name="Path 11721" d="M1897.326,822.15c-1.158-.507-1.514,2.949-.529,4.545,5.041,5.1,112.807,1.968,117.754,1.137s7.6-7.135,6.483-7.606c-1.7,2.321-2.676,1.784-5.315,2.567C2006.647,825.486,1903.313,827.054,1897.326,822.15Z" transform="translate(-1892.797 -791.375)" fill="#8b682e"/>
        </g>
      </g>
      <g id="Group_11047" data-name="Group 11047" transform="translate(0 0)">
        <path id="Path_11722" data-name="Path 11722" d="M1830.049,667.023a25.651,25.651,0,0,1-25.623-25.621c0-.667.035-2.122.07-3.528.028-1.132.054-2.2.054-2.583a25.5,25.5,0,0,1,50.995,0c0,.382.026,1.451.054,2.583.035,1.406.07,2.86.07,3.528A25.65,25.65,0,0,1,1830.049,667.023Z" transform="translate(-1803.274 -608.642)" fill="#0090e0"/>
        <path id="Path_11723" data-name="Path 11723" d="M1824.873,605.771a24.345,24.345,0,0,1,24.345,24.344c0,.864.125,4.9.125,6.111a24.47,24.47,0,0,1-48.939,0c0-1.207.124-5.247.124-6.111a24.346,24.346,0,0,1,24.346-24.344Zm0-2.3a26.65,26.65,0,0,0-26.65,26.648c0,.368-.027,1.48-.053,2.555-.035,1.413-.07,2.875-.07,3.556a26.774,26.774,0,0,0,53.547,0c0-.682-.036-2.143-.071-3.556-.027-1.075-.054-2.187-.054-2.555a26.648,26.648,0,0,0-26.649-26.648Z" transform="translate(-1798.099 -603.467)" fill="#234f18"/>
      </g>
      <g id="Group_11048" data-name="Group 11048" transform="translate(2.251 8.291)">
        <path id="Path_11724" data-name="Path 11724" d="M1859.4,673.474a24.469,24.469,0,0,1-48.939,0c0-1.6.136-2.986.136-4.681a24.817,24.817,0,0,1,24.334-19.788c12.518,0,22.88,6.682,24.333,18.809C1859.383,668.779,1859.4,672.479,1859.4,673.474Z" transform="translate(-1810.465 -649.005)" fill="#5a8418"/>
      </g>
      <g id="Group_11049" data-name="Group 11049" transform="translate(2.375 2.304)">
        <path id="Path_11725" data-name="Path 11725" d="M1859.835,640.466a24.346,24.346,0,1,1-24.345-24.344A24.346,24.346,0,0,1,1859.835,640.466Z" transform="translate(-1811.144 -616.122)" fill="#99cb23"/>
        <path id="Path_11726" data-name="Path 11726" d="M1859.835,640.466a24.593,24.593,0,0,1-.224,3.313,62.859,62.859,0,0,0-48.218.172,24.346,24.346,0,1,1,48.442-3.486Z" transform="translate(-1811.144 -616.122)" fill="#c4ed5f"/>
      </g>
      <path id="Path_11727" data-name="Path 11727" d="M1875.158,660.176a19.958,19.958,0,1,1-19.958-19.957A19.959,19.959,0,0,1,1875.158,660.176Z" transform="translate(-1828.48 -633.528)" fill="#fff"/>
      <g id="Group_11056" data-name="Group 11056" transform="translate(10.01 14.35)">
        <g id="Group_11052" data-name="Group 11052" transform="translate(0 10.5)">
          <g id="Group_11050" data-name="Group 11050" transform="translate(14.849 14.849)">
            <path id="Path_11728" data-name="Path 11728" d="M1938.365,823.38a1.862,1.862,0,1,1-1.862-1.862A1.862,1.862,0,0,1,1938.365,823.38Z" transform="translate(-1934.641 -821.518)" fill="#7bbc1e"/>
          </g>
          <g id="Group_11051" data-name="Group 11051">
            <path id="Path_11729" data-name="Path 11729" d="M2018.064,743.682a1.862,1.862,0,1,1,1.861-1.862A1.862,1.862,0,0,1,2018.064,743.682Z" transform="translate(-1986.505 -739.958)" fill="#7bbc1e"/>
            <path id="Path_11730" data-name="Path 11730" d="M1854.943,743.682a1.862,1.862,0,1,1,1.861-1.862A1.862,1.862,0,0,1,1854.943,743.682Z" transform="translate(-1853.081 -739.958)" fill="#7bbc1e"/>
          </g>
        </g>
        <g id="Group_11055" data-name="Group 11055" transform="translate(4.349 0)">
          <g id="Group_11053" data-name="Group 11053" transform="translate(0)">
            <path id="Path_11731" data-name="Path 11731" d="M1995.491,685.464a1.862,1.862,0,1,1,0-2.633A1.862,1.862,0,0,1,1995.491,685.464Z" transform="translate(-1971.314 -682.286)" fill="#7bbc1e"/>
            <path id="Path_11732" data-name="Path 11732" d="M1880.148,800.808a1.862,1.862,0,1,1,0-2.633A1.861,1.861,0,0,1,1880.148,800.808Z" transform="translate(-1876.97 -776.63)" fill="#7bbc1e"/>
          </g>
          <g id="Group_11054" data-name="Group 11054" transform="translate(0 0)">
            <path id="Path_11733" data-name="Path 11733" d="M1992.858,800.808a1.862,1.862,0,1,1,2.633,0A1.863,1.863,0,0,1,1992.858,800.808Z" transform="translate(-1971.314 -776.631)" fill="#7bbc1e"/>
            <path id="Path_11734" data-name="Path 11734" d="M1877.514,685.465a1.862,1.862,0,1,1,2.633,0A1.861,1.861,0,0,1,1877.514,685.465Z" transform="translate(-1876.969 -682.286)" fill="#7bbc1e"/>
          </g>
        </g>
      </g>
      <path id="Path_11735" data-name="Path 11735" d="M1937.325,671.82l-2.491.052s-.728-9.174-.75-9.515a2.973,2.973,0,0,1,.167-1.151c.343-.818,1.141-2.441,1.362-2.882.3-.6.777-1.163,1.246-.052.307.729.887,2,1.135,2.745a3.523,3.523,0,0,1,.2,1.407Z" transform="translate(-1909.323 -647.774)" fill="#12afc9"/>
      <path id="Path_11736" data-name="Path 11736" d="M1949.919,757.368l1.338-1.383s4.384,3.589,4.544,3.725a1.479,1.479,0,0,1,.409.591c.168.543.438,1.684.509,2,.1.427.081.93-.658.7-.484-.149-1.354-.386-1.813-.573a1.761,1.761,0,0,1-.72-.5Z" transform="translate(-1922.279 -728.218)" fill="#6cd9ea"/>
      <path id="Path_11737" data-name="Path 11737" d="M1934.167,736.42a3.064,3.064,0,1,1-3.064-3.064A3.064,3.064,0,0,1,1934.167,736.42Z" transform="translate(-1904.383 -709.709)" fill="#0065dd"/>
    </g>
  </g>
</svg>
