<svg xmlns="http://www.w3.org/2000/svg" width="35.165" height="40.897" viewBox="0 0 35.165 40.897">
  <g id="candy5" transform="translate(-6412.295 -2124.197)">
    <path id="Path_11749" data-name="Path 11749" d="M6447.46,2154.943v-20.3l-17.583-10.151-17.583,10.151v20.3l17.583,10.151Z" opacity="0.3"/>
    <g id="Group_11076" data-name="Group 11076">
      <g id="Group_11073" data-name="Group 11073">
        <path id="Path_11750" data-name="Path 11750" d="M6428.736,2124.2l-16.05,9.267V2152l16.05,9.267,16.051-9.267v-18.534Z" fill="#fff"/>
        <g id="Group_11072" data-name="Group 11072">
          <g id="Group_11071" data-name="Group 11071">
            <path id="Path_11751" data-name="Path 11751" d="M6428.736,2161.265,6412.685,2152v-18.534l16.051-9.267,16.05,9.267V2152Zm-13.869-10.527,13.869,8.007,13.869-8.007v-16.014l-13.869-8.007-13.869,8.007Z" fill="#ed1378"/>
          </g>
          <path id="Path_11752" data-name="Path 11752" d="M6428.736,2128.911l-11.968,6.91v13.82l11.968,6.91,11.968-6.91v-13.82Zm9.822,8.149V2148.4l-9.822,5.671-9.823-5.671V2137.06l9.823-5.671Z" fill="#ed1378"/>
          <path id="Path_11753" data-name="Path 11753" d="M6428.736,2128.911l-11.968,6.91v13.82l11.968,6.91,11.968-6.91v-13.82Zm9.822,8.149V2148.4l-9.822,5.671-9.823-5.671V2137.06l9.823-5.671Z" fill="#ed1378"/>
          <path id="Path_11754" data-name="Path 11754" d="M6428.736,2133.839l-7.7,4.446v8.892l7.7,4.446,7.7-4.446v-8.892Zm5.813,5.536v6.712l-5.813,3.356-5.813-3.356v-6.712l5.813-3.356Z" fill="#ed1378"/>
          <path id="Path_11755" data-name="Path 11755" d="M6428.515,2139.84l-2.319,1.339v2.678l2.319,1.339,2.32-1.339v-2.678Z" fill="#ed1378"/>
        </g>
      </g>
      <g id="Group_11074" data-name="Group 11074" opacity="0.32" style="mix-blend-mode: screen;isolation: isolate">
        <path id="Path_11756" data-name="Path 11756" d="M6443.968,2132.98l-14.707-8.491-.447,17.242Z" fill="#ed1378"/>
        <path id="Path_11757" data-name="Path 11757" d="M6413.221,2152.285l15.258,8.89-.263-18.074Z" fill="#ed1378"/>
      </g>
      <g id="Group_11075" data-name="Group 11075" opacity="0.24" style="mix-blend-mode: multiply;isolation: isolate">
        <path id="Path_11758" data-name="Path 11758" d="M6444.434,2151.166v-16.754l-14.952,8.123Z" fill="#ed1378"/>
        <path id="Path_11759" data-name="Path 11759" d="M6412.773,2134.42l-.069,17.421,15.313-9.14Z" fill="#ed1378"/>
      </g>
    </g>
  </g>
</svg>
