<?xml version="1.0" standalone="no"?>
<!DOCTYPE svg PUBLIC "-//W3C//DTD SVG 20010904//EN"
 "http://www.w3.org/TR/2001/REC-SVG-20010904/DTD/svg10.dtd">
<svg version="1.0" xmlns="http://www.w3.org/2000/svg"
 width="500.000000pt" height="500.000000pt" viewBox="0 0 500.000000 500.000000"
 preserveAspectRatio="xMidYMid meet">

<g transform="translate(0.000000,500.000000) scale(0.100000,-0.100000)"
fill="#000000" stroke="none">
<path d="M2352 4980 c-103 -27 -133 -42 -367 -185 -208 -127 -289 -176 -890
-540 -431 -261 -457 -278 -528 -355 -77 -83 -119 -159 -146 -264 -21 -78 -21
-99 -21 -1130 l0 -1051 24 -85 c27 -99 59 -162 118 -234 78 -96 89 -103 688
-466 113 -68 286 -173 385 -233 727 -441 689 -422 890 -421 165 0 219 20 445
159 47 29 362 220 700 425 338 206 640 390 671 411 117 79 224 232 260 374 10
38 14 295 16 1102 4 1042 3 1053 -17 1135 -36 142 -124 277 -234 357 -28 20
-339 212 -691 425 -352 214 -683 414 -735 446 -135 82 -186 106 -278 129 -99
26 -194 26 -290 1z"/>
</g>
</svg>
