<svg xmlns="http://www.w3.org/2000/svg" width="35.166" height="40.897" viewBox="0 0 35.166 40.897">
  <g id="candy1" transform="translate(-6321.05 -2176.69)">
    <path id="Path_11631" data-name="Path 11631" d="M6356.216,2207.436v-20.3l-17.583-10.151-17.583,10.151v20.3l17.583,10.151Z" opacity="0.3"/>
    <g id="Group_10979" data-name="Group 10979">
      <g id="Group_10976" data-name="Group 10976">
        <path id="Path_11632" data-name="Path 11632" d="M6337.492,2176.69l-16.051,9.267v18.533l16.051,9.267,16.05-9.267v-18.533Z" fill="#fff"/>
        <g id="Group_10975" data-name="Group 10975">
          <g id="Group_10974" data-name="Group 10974">
            <path id="Path_11633" data-name="Path 11633" d="M6337.492,2213.757l-16.051-9.266v-18.534l16.051-9.267,16.05,9.267v18.534Zm-13.869-10.526,13.869,8.007,13.868-8.007v-16.014l-13.868-8.007-13.869,8.007Z" fill="#f5584c"/>
          </g>
          <path id="Path_11634" data-name="Path 11634" d="M6337.492,2181.4l-11.969,6.91v13.82l11.969,6.91,11.968-6.91v-13.82Zm9.822,8.149V2200.9l-9.822,5.671-9.823-5.671v-11.342l9.823-5.671Z" fill="#f5584c"/>
          <path id="Path_11635" data-name="Path 11635" d="M6337.492,2181.4l-11.969,6.91v13.82l11.969,6.91,11.968-6.91v-13.82Zm9.822,8.149V2200.9l-9.822,5.671-9.823-5.671v-11.342l9.823-5.671Z" fill="#f5584c"/>
          <path id="Path_11636" data-name="Path 11636" d="M6337.492,2186.332l-7.7,4.446v8.892l7.7,4.446,7.7-4.446v-8.892Zm5.813,5.536v6.712l-5.813,3.356-5.814-3.356v-6.712l5.814-3.357Z" fill="#f5584c"/>
          <path id="Path_11637" data-name="Path 11637" d="M6337.271,2192.332l-2.319,1.34v2.678l2.319,1.339,2.32-1.339v-2.678Z" fill="#f5584c"/>
        </g>
      </g>
      <g id="Group_10977" data-name="Group 10977" opacity="0.32" style="mix-blend-mode: screen;isolation: isolate">
        <path id="Path_11638" data-name="Path 11638" d="M6352.724,2185.473l-14.707-8.491-.447,17.242Z" fill="#fff"/>
        <path id="Path_11639" data-name="Path 11639" d="M6321.977,2204.778l15.258,8.89-.263-18.075Z" fill="#fff"/>
      </g>
      <g id="Group_10978" data-name="Group 10978" opacity="0.24" style="mix-blend-mode: multiply;isolation: isolate">
        <path id="Path_11640" data-name="Path 11640" d="M6353.19,2203.659v-16.754l-14.952,8.123Z" fill="#f5584c"/>
        <path id="Path_11641" data-name="Path 11641" d="M6321.529,2186.912l-.069,17.422,15.313-9.141Z" fill="#f5584c"/>
      </g>
    </g>
  </g>
</svg>
