<svg xmlns="http://www.w3.org/2000/svg" width="143" height="54.389" viewBox="0 0 143 54.389">
  <g id="home_ic" transform="translate(-117.5 -540.593)">
    <rect id="Rectangle_4245" data-name="Rectangle 4245" width="134" height="48.389" rx="18" transform="translate(123.5 543.593)" fill="#aecb5d" style="mix-blend-mode: multiply;isolation: isolate"/>
    <g id="Group_11025" data-name="Group 11025" transform="translate(117.5 541.593)">
      <g id="Group_11019" data-name="Group 11019" transform="translate(0 0)">
        <g id="Group_11016" data-name="Group 11016" transform="translate(1.642 4.926)">
          <g id="Group_11015" data-name="Group 11015" opacity="0.25">
            <rect id="Rectangle_4241" data-name="Rectangle 4241" width="134.216" height="41.048" rx="20.524"/>
          </g>
        </g>
        <g id="Group_11018" data-name="Group 11018">
          <g id="Group_11017" data-name="Group 11017">
            <rect id="Rectangle_4242" data-name="Rectangle 4242" width="135.858" height="42.69" rx="16" transform="translate(0.822 0.821)" fill="#fd9830"/>
            <path id="Path_11677" data-name="Path 11677" d="M696.248,465.335a13.654,13.654,0,0,1,13.681,13.546v13.956a13.654,13.654,0,0,1-13.681,13.546H589.426a13.654,13.654,0,0,1-13.681-13.546V478.881a13.654,13.654,0,0,1,13.681-13.546H696.248m0-1.642H589.426a15.281,15.281,0,0,0-15.339,15.188v13.956a15.281,15.281,0,0,0,15.339,15.188H696.248a15.281,15.281,0,0,0,15.339-15.188V478.881a15.281,15.281,0,0,0-15.339-15.188Z" transform="translate(-574.087 -463.693)" fill="#af2771"/>
          </g>
        </g>
        <rect id="Rectangle_4243" data-name="Rectangle 4243" width="127.255" height="38.038" rx="19.019" transform="translate(5.123 1.642)" fill="#fc3"/>
        <path id="Path_11678" data-name="Path 11678" d="M697.176,473.274H590.328c-7.526,0-13.684,12.953-13.684,12.953V479.8a13.655,13.655,0,0,1,13.684-13.546H697.176A13.655,13.655,0,0,1,710.86,479.8V486S704.7,473.274,697.176,473.274Z" transform="translate(-575.002 -464.608)" fill="#f9fdb1"/>
        <path id="Path_11679" data-name="Path 11679" d="M589.16,476.246c.986,1.709,4.048,1.789,6.838.178s4.252-4.3,3.265-6.011-4.048-1.789-6.838-.178S588.174,474.537,589.16,476.246Z" transform="translate(-579.369 -465.619)" fill="#fff"/>
      </g>
      <g id="Group_11024" data-name="Group 11024" transform="translate(35.368 12.531)">
        <g id="Group_11020" data-name="Group 11020" transform="translate(0 2.198)">
          <path id="Path_11680" data-name="Path 11680" d="M632.1,488.09l7.739-.7-.766,7.565L641,494.82l.262-7.192,7.542-.348-1.9,17.034-6.318.718.284-4.509-1.017.136-.221,4.795-6.645.126Z" transform="translate(-631.445 -486.616)" fill="#fff"/>
          <path id="Path_11681" data-name="Path 11681" d="M647.872,487.635l-1.77,15.94-5.072.578.284-4.542-2.3.31-.219,4.75-5.443.1-.831-16.416,6.383-.579-.765,7.579,3.235-.227.262-7.207,6.23-.289m1.405-1.255-1.466.068-6.231.289-1.156.054-.039,1.093-.224,6.141-.622.044.624-6.176.145-1.434-1.518.138-6.383.578-1.194.109.057,1.131.831,16.416.059,1.155,1.223-.023,5.444-.1,1.181-.022.017-.371,1.157-.132,5.072-.578,1-.113.1-.943,1.77-15.941.154-1.379Z" transform="translate(-631.212 -486.38)" fill="#8b2869"/>
        </g>
        <g id="Group_11021" data-name="Group 11021" transform="translate(15.19 1.824)">
          <path id="Path_11682" data-name="Path 11682" d="M662.218,506.013a9.294,9.294,0,0,1-2.824-.478,7.858,7.858,0,0,1-2.51-1.4,7.075,7.075,0,0,1-1.865-2.453,9.611,9.611,0,0,1-.938-3.265,9.359,9.359,0,0,1,.221-3.127,9.786,9.786,0,0,1,1.209-2.839,11.56,11.56,0,0,1,2.005-2.4,12.888,12.888,0,0,1,2.631-1.854A13.523,13.523,0,0,1,663.258,487a9.742,9.742,0,0,1,2.214-.272,7.776,7.776,0,0,1,.8.04,8.653,8.653,0,0,1,2.544.638,7.259,7.259,0,0,1,1.951,1.211A5.811,5.811,0,0,1,672,490.081a11,11,0,0,1,1.077,2.954,10.557,10.557,0,0,1,.162,3.41A11.178,11.178,0,0,1,672.192,500a12.021,12.021,0,0,1-2.528,3.421,8.452,8.452,0,0,1-2.072,1.411,11.382,11.382,0,0,1-2.561.9,12.006,12.006,0,0,1-2.615.285Zm1.9-12.4a3.234,3.234,0,0,0-1.178.32,3.933,3.933,0,0,0-1.13.819,4.447,4.447,0,0,0-.855,1.3,4.147,4.147,0,0,0-.334,1.69,2.848,2.848,0,0,0,.232,1.35,1.641,1.641,0,0,0,.583.678,1.694,1.694,0,0,0,.817.236l.133,0a2.791,2.791,0,0,0,.882-.146,3.535,3.535,0,0,0,.992-.516,3.389,3.389,0,0,0,.779-.8,6.378,6.378,0,0,0,.729-1.363,4.7,4.7,0,0,0,.275-1.129,2.766,2.766,0,0,0-.044-.874,2.9,2.9,0,0,0-.254-.706,1.411,1.411,0,0,0-.651-.686,1.912,1.912,0,0,0-.843-.187C664.2,493.609,664.159,493.611,664.114,493.613Z" transform="translate(-653.409 -486.097)" fill="#fff"/>
          <path id="Path_11683" data-name="Path 11683" d="M665.251,487.065a7.031,7.031,0,0,1,.733.038,7.92,7.92,0,0,1,2.35.589,6.6,6.6,0,0,1,1.782,1.108,5.186,5.186,0,0,1,1.1,1.315,10.437,10.437,0,0,1,1.017,2.8,9.991,9.991,0,0,1,.153,3.24,10.616,10.616,0,0,1-.995,3.385,11.39,11.39,0,0,1-2.4,3.26,7.794,7.794,0,0,1-1.912,1.3,10.7,10.7,0,0,1-2.416.85,11.3,11.3,0,0,1-2.475.27h-.181a8.551,8.551,0,0,1-2.623-.445,7.189,7.189,0,0,1-2.307-1.294,6.459,6.459,0,0,1-1.7-2.256,9.06,9.06,0,0,1-.885-3.084,8.836,8.836,0,0,1,.208-2.951,9.235,9.235,0,0,1,1.136-2.681,11.022,11.022,0,0,1,1.9-2.288,12.25,12.25,0,0,1,2.5-1.77,12.786,12.786,0,0,1,2.962-1.138,8.913,8.913,0,0,1,2.054-.255M662.159,500.4a3.437,3.437,0,0,0,1.092-.18,4.144,4.144,0,0,0,1.17-.611,3.981,3.981,0,0,0,.919-.941,6.983,6.983,0,0,0,.8-1.5,5.223,5.223,0,0,0,.306-1.273,3.321,3.321,0,0,0-.055-1.056,3.526,3.526,0,0,0-.306-.849,2,2,0,0,0-.93-.952,2.564,2.564,0,0,0-1.128-.254c-.057,0-.114,0-.172.006a3.842,3.842,0,0,0-1.421.383,4.515,4.515,0,0,0-1.312.952,5,5,0,0,0-.972,1.48,4.719,4.719,0,0,0-.382,1.925,3.389,3.389,0,0,0,.295,1.615,2.225,2.225,0,0,0,.809.921,2.341,2.341,0,0,0,1.126.331c.055,0,.11,0,.165,0m3.091-14.524h0a10.3,10.3,0,0,0-2.359.29,14.174,14.174,0,0,0-3.278,1.259,13.549,13.549,0,0,0-2.758,1.951,12.286,12.286,0,0,0-2.109,2.537,10.44,10.44,0,0,0-1.278,3.015,10.022,10.022,0,0,0-.236,3.326,10.247,10.247,0,0,0,.992,3.472,7.672,7.672,0,0,0,2.023,2.662,8.5,8.5,0,0,0,2.713,1.519,9.923,9.923,0,0,0,3.025.514l.2,0a12.646,12.646,0,0,0,2.765-.3,12.04,12.04,0,0,0,2.71-.953,9.058,9.058,0,0,0,2.218-1.517,12.648,12.648,0,0,0,2.663-3.615,11.811,11.811,0,0,0,1.1-3.749,11.186,11.186,0,0,0-.171-3.6,11.662,11.662,0,0,0-1.131-3.113,6.439,6.439,0,0,0-1.361-1.635,7.894,7.894,0,0,0-2.118-1.323,9.3,9.3,0,0,0-2.738-.692,8.512,8.512,0,0,0-.87-.044Zm-3.091,13.332-.1,0a1.038,1.038,0,0,1-.508-.143,1.063,1.063,0,0,1-.358-.438,2.268,2.268,0,0,1-.17-1.071,3.672,3.672,0,0,1,.286-1.493,3.852,3.852,0,0,1,.74-1.134,3.271,3.271,0,0,1,.946-.691,2.565,2.565,0,0,1,.938-.259c.03,0,.062,0,.093,0a1.262,1.262,0,0,1,.558.124.779.779,0,0,1,.36.4,2.447,2.447,0,0,1,.216.6,2.241,2.241,0,0,1,.031.7,4.13,4.13,0,0,1-.244.992,5.864,5.864,0,0,1-.667,1.245,2.694,2.694,0,0,1-.633.645,2.845,2.845,0,0,1-.811.427,2.107,2.107,0,0,1-.676.113Z" transform="translate(-653.187 -485.874)" fill="#8b2869"/>
        </g>
        <g id="Group_11022" data-name="Group 11022" transform="translate(31.756)">
          <path id="Path_11684" data-name="Path 11684" d="M692.808,500.52l-2.788,4.633-3.431-5.007-1.966,5.7-6.191-3.81,6.085-16.879,5.625,6.737,5.359-5.263,5.853,15.289-6.32,4.905Z" transform="translate(-677.677 -483.862)" fill="#fff"/>
          <path id="Path_11685" data-name="Path 11685" d="M684.471,485.871l5.356,6.447,5.16-5.09,5.355,14.061-5.268,4.11-2.383-6.78-2.973,4.965-3.585-5.257-2.12,6.175-5.093-3.15,5.552-15.48m-.445-2.468-.746,2.079-5.553,15.48-.318.887.825.509,5.094,3.15,1.371.848.509-1.482,1.3-3.794,2.153,3.157,1.125,1.649,1.023-1.708,1.58-2.639,1.49,4.24.58,1.648,1.41-1.1,5.268-4.11.691-.54-.3-.8-5.355-14.061-.688-1.805-1.4,1.381L689.92,490.5l-4.463-5.373-1.431-1.722Z" transform="translate(-677.409 -483.403)" fill="#8b2869"/>
        </g>
        <g id="Group_11023" data-name="Group 11023" transform="translate(54.206 2.311)">
          <path id="Path_11686" data-name="Path 11686" d="M709.96,488.4l13.419-.938-.836,6.413-1.415.059-.555,4.339,2.62-.233-.132,6.887-12.938.66Z" transform="translate(-709.325 -486.775)" fill="#fff"/>
          <path id="Path_11687" data-name="Path 11687" d="M722.436,487.825l-.678,5.223-5.487.227-.021.991,3.978-.268-.459,3.613-3.65.268-.043,1.136,6.251-.558-.109,5.7-11.7.6-.153-16.079,12.067-.847m1.436-1.292-1.529.107-12.067.846-1.176.082.011,1.113.153,16.079.012,1.243,1.315-.067,11.7-.6,1.169-.06.021-1.105.109-5.7.025-1.33-1.4.125-1.142.1.4-3.125.35-.015,1.064-.044.13-1,.678-5.222.187-1.437Z" transform="translate(-709.1 -486.533)" fill="#8b2869"/>
        </g>
      </g>
    </g>
  </g>
</svg>
