<svg xmlns="http://www.w3.org/2000/svg" xmlns:xlink="http://www.w3.org/1999/xlink" width="262.182" height="148.788" viewBox="0 0 262.182 148.788">
  <defs>
    <filter id="the_cat" x="41.252" y="89.788" width="167" height="59" filterUnits="userSpaceOnUse">
      <feOffset dx="3" dy="3" input="SourceAlpha"/>
      <feGaussianBlur stdDeviation="2" result="blur"/>
      <feFlood flood-color="#6c8132"/>
      <feComposite operator="in" in2="blur"/>
      <feComposite in="SourceGraphic"/>
    </filter>
    <filter id="Path_12171" x="0" y="0" width="262.182" height="96.953" filterUnits="userSpaceOnUse">
      <feOffset dx="4" dy="4" input="SourceAlpha"/>
      <feGaussianBlur stdDeviation="2" result="blur-2"/>
      <feFlood flood-color="#4a5c19" flood-opacity="0.647"/>
      <feComposite operator="in" in2="blur-2"/>
      <feComposite in="SourceGraphic"/>
    </filter>
  </defs>
  <g id="logo" transform="translate(-77.818 -114.541)">
    <g transform="matrix(1, 0, 0, 1, 77.82, 114.54)" filter="url(#the_cat)">
      <text id="the_cat-2" data-name="the cat" transform="translate(46.75 125.29)" fill="#fff" stroke="#5b711f" stroke-width="2.5" font-size="42" font-family="LuckiestGuy-Regular, Luckiest Guy"><tspan x="0" y="0">the cat</tspan></text>
    </g>
    <g id="Group_11234" data-name="Group 11234" transform="translate(-1680.866 566.878)">
      <g transform="matrix(1, 0, 0, 1, 1758.68, -452.34)" filter="url(#Path_12171)">
        <path id="Path_12171-2" data-name="Path 12171" d="M2009.346-429.738h0a27.872,27.872,0,0,0-4.132-7.8,27.236,27.236,0,0,0-6.2-5.9,36.794,36.794,0,0,0-7.383-3.926,40.654,40.654,0,0,0-8.2-2.267,50.862,50.862,0,0,0-8.365-.7,91.58,91.58,0,0,0-13.794,1.025,94.9,94.9,0,0,0-13.356,3.066,4.395,4.395,0,0,0-3.055,4.016c-.2,4.319-.289,8.661-.255,12.9.033,4.134.016,8.323-.049,12.477-.043,5.163-.079,10.321-.108,15.414L1932.1-445.4a4.259,4.259,0,0,0-4.323-3.179l-27.728,1.44a4.314,4.314,0,0,0-3.884,3.143l-16.534,57.073-4.961-9.116a33.917,33.917,0,0,0,2.9-2.595,25.948,25.948,0,0,0,4.5-6.076,26.956,26.956,0,0,0,2.551-7.194,40.87,40.87,0,0,0,.767-8.2,29.041,29.041,0,0,0-2.961-13.322,28.659,28.659,0,0,0-7.738-9.517,32.581,32.581,0,0,0-10.793-5.594,41.814,41.814,0,0,0-12.21-1.8c-2.511,0-5.007.062-7.419.185-2.459.126-4.917.364-7.307.705a67.535,67.535,0,0,0-7.257,1.453c-1.973.509-3.987,1.139-6,1.867a4.375,4.375,0,0,0-.726-1.034,4.241,4.241,0,0,0-3.063-1.325l-54.36.1a4.321,4.321,0,0,0-4.268,4.3l-.6,24.276a4.5,4.5,0,0,0,1.293,3.278,4.209,4.209,0,0,0,3.212,1.243l10.346-.572-.09,44.1a4.5,4.5,0,0,0,1.329,3.2,4.192,4.192,0,0,0,2.948,1.215c.079,0,.155,0,.224-.006l21.045-1.132a4.355,4.355,0,0,0,4.041-4.053l3.487-44.866,10.457-.434c-.195,7.629-.369,15.382-.517,23.049-.147,7.6-.306,15.457-.473,23.345a4.509,4.509,0,0,0,1.219,3.181,4.238,4.238,0,0,0,3.057,1.327h21.445a4.332,4.332,0,0,0,4.274-4.221l.63-15.03,5.835,16.649a4.3,4.3,0,0,0,4.022,2.911,4.213,4.213,0,0,0,.821-.082l18.824-3.8a4.191,4.191,0,0,0,1.881.668l25.446,2.573a4.3,4.3,0,0,0,4.583-3.439l1.751-8.166h4.646l2.148,8.347a4.308,4.308,0,0,0,4.134,3.279,4.252,4.252,0,0,0,.548-.037l21.108-2.809v.285a4.352,4.352,0,0,0,4.277,4.412h23.24a4.352,4.352,0,0,0,4.277-4.412v-19.752c1.471-.115,2.955-.279,4.438-.49a51.727,51.727,0,0,0,8.707-2.015,40.708,40.708,0,0,0,8.1-3.646,28.434,28.434,0,0,0,6.958-5.759,26.233,26.233,0,0,0,4.778-8.1A29.733,29.733,0,0,0,2010.866-420,29.77,29.77,0,0,0,2009.346-429.738Zm-29.177,11.487a3.443,3.443,0,0,1-.308,1.524,4.564,4.564,0,0,1-1.055,1.389,5.02,5.02,0,0,1-1.612.958c-.084.031-.168.06-.253.087l.265-6.643h.16a2.9,2.9,0,0,1,2.207.7C1979.751-420.062,1980.169-419.664,1980.169-418.251Zm-125.676-.206a4.016,4.016,0,0,1-.473,2.086,5.266,5.266,0,0,1-1.59,1.67,8.692,8.692,0,0,1-2.691,1.169l-.051.013.434-10.4a5.224,5.224,0,0,1,1.886.376,3.582,3.582,0,0,1,1.285.928,4.47,4.47,0,0,1,.839,1.568A8.555,8.555,0,0,1,1854.492-418.457Z" transform="translate(-1758.68 452.34)" fill="#926040" opacity="0.995"/>
      </g>
      <g id="Group_11232" data-name="Group 11232" transform="translate(1763.431 -445.676)">
        <path id="Path_12172" data-name="Path 12172" d="M1788.542-347.365l21.121-1.1,2.242-27.965c-8.037-.859-15.818-1.927-23.3-3.182Z" transform="translate(-1773.727 419.538)" fill="#efac35"/>
        <path id="Path_12173" data-name="Path 12173" d="M1903.211-369.448q1.578-.995,2.93-2.038-10.054.431-20.449.437c-9.837,0-19.476-.3-28.848-.873q-.055,2.541-.105,5.077-.225,11.312-.475,22.723h21.522l.9-20.821,6.206-.2,7.708,21.321L1915-348.2l.046-.153Z" transform="translate(-1798.755 416.696)" fill="#efac35"/>
        <path id="Path_12174" data-name="Path 12174" d="M1986.474-375.553h-7.508l.825-3.883c-7.53,1.016-15.32,1.845-23.326,2.472l-7.2,24.1.073.13-.119.023-.381,1.279,25.526,2.5,2.5-11.312h11.412l3,11.312,24.825-3.2-9.265-31.979c-6.826,1.462-13.971,2.756-21.388,3.868Z" transform="translate(-1832.968 421.199)" fill="#efac35"/>
        <path id="Path_12175" data-name="Path 12175" d="M1949.487-334.54l-.046.153.119-.023Z" transform="translate(-1833.192 402.88)" fill="#edd760"/>
        <path id="Path_12176" data-name="Path 12176" d="M2093.381-409.056a7.457,7.457,0,0,1-.776,3.428,8.682,8.682,0,0,1-2.077,2.653,9.3,9.3,0,0,1-2.978,1.727,10.242,10.242,0,0,1-3.478.6h-1.351a9.447,9.447,0,0,1-1.352-.1l.33-8.016a234.405,234.405,0,0,1-24.1,7.4q-.063,8.369-.1,16.634-.05,11.362-.05,22.823h23.323v-23.324a65.236,65.236,0,0,0,8.158-.626,48.729,48.729,0,0,0,8.033-1.8,37.026,37.026,0,0,0,7.282-3.178,23.977,23.977,0,0,0,5.931-4.755,20.991,20.991,0,0,0,3.979-6.556,23.762,23.762,0,0,0,1.451-8.609,23.814,23.814,0,0,0-1.276-8.033,22.856,22.856,0,0,0-2.7-5.321,105.53,105.53,0,0,1-19.332,11.015A7.115,7.115,0,0,1,2093.381-409.056Z" transform="translate(-1873.108 435.984)" fill="#efac35"/>
        <path id="Path_12177" data-name="Path 12177" d="M1819.7-418.864l.5-21.221-54.555.1-.6,23.624,14.915-.8-.032,15.2c7.478,1.256,15.259,2.323,23.3,3.182l1.561-19.482Z" transform="translate(-1765.041 441.887)" fill="#edd760"/>
        <path id="Path_12178" data-name="Path 12178" d="M1906.482-397.734a29.222,29.222,0,0,0,2.626-2.266,20.891,20.891,0,0,0,3.753-4.9,21.3,21.3,0,0,0,2.127-5.831,34.124,34.124,0,0,0,.676-7.082,23.192,23.192,0,0,0-2.477-10.961,23.7,23.7,0,0,0-6.582-7.858,28.665,28.665,0,0,0-9.435-4.73,38.709,38.709,0,0,0-11.036-1.577q-3.7,0-7.232.175t-6.957.651a65.236,65.236,0,0,0-6.832,1.326,65.534,65.534,0,0,0-6.907,2.152q-.3,5.756-.4,11.412t-.2,11.411q-.233,8.854-.42,17.646c9.372.573,19.011.873,28.848.873Q1896.417-397.3,1906.482-397.734Zm-25.653-8.973h-1.2l.8-18.619a13.485,13.485,0,0,1,1.852-.376,15.077,15.077,0,0,1,1.952-.125,9.838,9.838,0,0,1,3.93.726,7.823,7.823,0,0,1,2.8,2,8.545,8.545,0,0,1,1.7,3.028,12.305,12.305,0,0,1,.576,3.854,7.955,7.955,0,0,1-1.126,4.3,9.441,9.441,0,0,1-2.9,2.953,13.046,13.046,0,0,1-4,1.7A18.179,18.179,0,0,1,1880.829-406.707Z" transform="translate(-1799.096 442.944)" fill="#edd760"/>
        <path id="Path_12179" data-name="Path 12179" d="M1973.229-438.843l-12.291,41.132c8.006-.627,15.8-1.456,23.326-2.472l2.878-13.535,2.78,12.73c7.417-1.111,14.563-2.406,21.388-3.868l-10.254-35.389Z" transform="translate(-1837.441 441.946)" fill="#edd760"/>
        <path id="Path_12180" data-name="Path 12180" d="M2105.706-436.963a32.879,32.879,0,0,0-6.556-3.378,37.325,37.325,0,0,0-7.383-1.977,48.071,48.071,0,0,0-7.708-.626,89.952,89.952,0,0,0-13.213.951,92.97,92.97,0,0,0-12.813,2.853q-.3,6.207-.25,12.313t-.051,12.212q-.027,3.153-.051,6.29a234.428,234.428,0,0,0,24.1-7.4l.271-6.6q1-.25,2.127-.426a14.263,14.263,0,0,1,2.177-.175,7.263,7.263,0,0,1,5.13,1.826,5.8,5.8,0,0,1,.888,1.04,105.517,105.517,0,0,0,19.332-11.015c-.25-.361-.505-.717-.775-1.061A22.588,22.588,0,0,0,2105.706-436.963Z" transform="translate(-1873.196 442.944)" fill="#edd760"/>
      </g>
      <g id="Group_11233" data-name="Group 11233" transform="translate(1765.439 -444.721)">
        <path id="Path_12181" data-name="Path 12181" d="M1819.122-441.429h0l-49.718.1a.631.631,0,0,0-.629.615l-.546,22.95a.63.63,0,0,0,.191.468.639.639,0,0,0,.475.176l12.924-.74-.089,45.427a.627.627,0,0,0,.2.458.63.63,0,0,0,.434.173h.035l19.249-1.07a.629.629,0,0,0,.594-.582l3.425-45.537,13.032-.559a.63.63,0,0,0,.6-.616l.456-20.617a.63.63,0,0,0-.18-.455A.628.628,0,0,0,1819.122-441.429Zm-1.074,20.642-13,.558a.631.631,0,0,0-.6.583l-3.425,45.544-18.029,1,.09-45.428a.631.631,0,0,0-.2-.46.635.635,0,0,0-.434-.172h-.036l-12.91.74.516-21.652,48.458-.1Z" transform="translate(-1768.227 441.429)" fill="#fff"/>
        <path id="Path_12182" data-name="Path 12182" d="M1904.243-412.047a8.026,8.026,0,0,0-2.862-2.005,10.1,10.1,0,0,0-3.946-.72,15.157,15.157,0,0,0-1.918.12,13.7,13.7,0,0,0-1.829.364.63.63,0,0,0-.464.581l-.754,17.178a.632.632,0,0,0,.174.463.632.632,0,0,0,.456.194h1.131a18.139,18.139,0,0,0,4.272-.526,13.107,13.107,0,0,0,3.96-1.65,9.448,9.448,0,0,0,2.926-2.918,7.871,7.871,0,0,0,1.16-4.31,11.849,11.849,0,0,0-.574-3.757A8.528,8.528,0,0,0,1904.243-412.047Zm.083,10.4a8.2,8.2,0,0,1-2.539,2.531,11.867,11.867,0,0,1-3.581,1.49,16.908,16.908,0,0,1-3.975.49h-.472l.7-16.05c.4-.092.8-.165,1.215-.218a13.9,13.9,0,0,1,1.758-.11,8.858,8.858,0,0,1,3.453.62,6.778,6.778,0,0,1,2.417,1.688,7.269,7.269,0,0,1,1.473,2.572,10.572,10.572,0,0,1,.509,3.356A6.642,6.642,0,0,1,1904.326-401.643Z" transform="translate(-1814.144 431.577)" fill="#fff"/>
        <path id="Path_12183" data-name="Path 12183" d="M1914.708-375.759a.631.631,0,0,0-.026-.577l-10.917-19.054a31.423,31.423,0,0,0,4.82-3.728,20.021,20.021,0,0,0,3.649-4.673,20.129,20.129,0,0,0,2.069-5.553,31.694,31.694,0,0,0,.651-6.667,21.761,21.761,0,0,0-2.408-10.411,22.705,22.705,0,0,0-6.374-7.455,27.964,27.964,0,0,0-9.088-4.465,37.948,37.948,0,0,0-10.567-1.48c-2.318,0-4.62.055-6.841.163s-4.446.312-6.606.605a63.429,63.429,0,0,0-6.5,1.236,63.637,63.637,0,0,0-6.57,2.006.63.63,0,0,0-.414.559c-.188,3.532-.315,7.082-.378,10.551s-.126,6.989-.188,10.523c-.187,6.986-.354,14.041-.495,20.968q-.212,10.436-.448,20.963a.631.631,0,0,0,.18.455.633.633,0,0,0,.451.19h20.266a.631.631,0,0,0,.63-.6l.823-18.626,4.806-.152,7.1,19.245a.631.631,0,0,0,.591.412.636.636,0,0,0,.119-.011l21.209-4.064A.629.629,0,0,0,1914.708-375.759Zm-21.376,3.081-7.073-19.17a.63.63,0,0,0-.591-.412h-.02l-5.844.185a.631.631,0,0,0-.61.6l-.822,18.607h-19.018q.228-10.2.433-20.322c.141-6.926.307-13.978.495-20.966q.094-5.31.189-10.529c.06-3.318.179-6.71.354-10.089a62.009,62.009,0,0,1,6.046-1.824,62.14,62.14,0,0,1,6.369-1.212c2.123-.288,4.309-.488,6.5-.595s4.482-.161,6.78-.161a36.684,36.684,0,0,1,10.217,1.43,26.693,26.693,0,0,1,8.68,4.262,21.461,21.461,0,0,1,6.022,7.045,20.519,20.519,0,0,1,2.258,9.814,30.405,30.405,0,0,1-.622,6.4,18.864,18.864,0,0,1-1.937,5.205,18.758,18.758,0,0,1-3.421,4.378,30.835,30.835,0,0,1-5.127,3.89.631.631,0,0,0-.216.85l10.779,18.813Z" transform="translate(-1801.435 440.835)" fill="#fff"/>
        <path id="Path_12184" data-name="Path 12184" d="M1995.416-438.514a.617.617,0,0,0-.635-.449l-27.387,1.335a.63.63,0,0,0-.571.444l-19.6,63.5a.633.633,0,0,0,.078.536.631.631,0,0,0,.465.277l25.12,2.384a.627.627,0,0,0,.675-.487l2.351-10.284h10.247l2.828,10.31a.632.632,0,0,0,.608.464.675.675,0,0,0,.079-.005l24.43-3.051a.631.631,0,0,0,.45-.281.632.632,0,0,0,.076-.525Zm-5.362,66.708-2.81-10.247a.631.631,0,0,0-.608-.464H1975.4a.629.629,0,0,0-.614.49l-2.34,10.234-23.8-2.258L1967.9-436.39l26.452-1.289L2013.2-374.7Z" transform="translate(-1834.369 440.518)" fill="#fff"/>
        <path id="Path_12185" data-name="Path 12185" d="M1998.5-398.883h0a.63.63,0,0,0-.614.495l-3.645,16.591a.632.632,0,0,0,.124.53.632.632,0,0,0,.492.236h7.388a.633.633,0,0,0,.493-.237.633.633,0,0,0,.122-.533l-3.745-16.591A.629.629,0,0,0,1998.5-398.883Zm-2.861,16.591,2.869-13.06,2.947,13.06Z" transform="translate(-1851.752 425.705)" fill="#fff"/>
        <path id="Path_12186" data-name="Path 12186" d="M2113.362-424.161a21.552,21.552,0,0,0-3.372-6.125,21.872,21.872,0,0,0-5.066-4.634,31.807,31.807,0,0,0-6.294-3.213,36.238,36.238,0,0,0-7.07-1.875,46.588,46.588,0,0,0-7.352-.591,86.56,86.56,0,0,0-12.524.893,89.2,89.2,0,0,0-12.142,2.677.631.631,0,0,0-.452.574c-.188,3.853-.268,7.724-.236,11.508s.015,7.6-.047,11.368c-.064,7.194-.112,14.382-.142,21.362s-.047,14.136-.047,21.268a.63.63,0,0,0,.631.63h21.945a.631.631,0,0,0,.63-.63v-21.113a63.174,63.174,0,0,0,7.131-.577,47.148,47.148,0,0,0,7.662-1.7,35.761,35.761,0,0,0,6.975-3.015,23.266,23.266,0,0,0,5.736-4.554,20.261,20.261,0,0,0,3.865-6.3,22.67,22.67,0,0,0,1.409-8.25A22.691,22.691,0,0,0,2113.362-424.161Zm-1.345,15.49a18.976,18.976,0,0,1-3.622,5.914,22.013,22.013,0,0,1-5.426,4.307,34.571,34.571,0,0,1-6.729,2.908,45.917,45.917,0,0,1-7.455,1.656,61.755,61.755,0,0,1-7.6.577.63.63,0,0,0-.623.63v21.1H2059.88c0-6.922.017-13.86.047-20.632.03-6.978.078-14.164.142-21.351.062-3.772.078-7.606.047-11.395-.03-3.613.042-7.307.214-10.988a87.815,87.815,0,0,1,11.539-2.514,85.284,85.284,0,0,1,12.34-.879,45.267,45.267,0,0,1,7.152.575,34.915,34.915,0,0,1,6.823,1.809,30.514,30.514,0,0,1,6.044,3.084A20.61,20.61,0,0,1,2109-429.5a20.342,20.342,0,0,1,3.174,5.768,21.451,21.451,0,0,1,1.164,7.272A21.407,21.407,0,0,1,2112.017-408.671Z" transform="translate(-1875.55 441.121)" fill="#fff"/>
        <path id="Path_12187" data-name="Path 12187" d="M2099.571-411.007a14.141,14.141,0,0,0-2.146.171c-.725.112-1.418.25-2.056.407a.63.63,0,0,0-.478.586l-.565,13.618a.631.631,0,0,0,.541.65,9.65,9.65,0,0,0,1.36.1h1.271a10.383,10.383,0,0,0,3.484-.6,9.451,9.451,0,0,0,3-1.724,8.775,8.775,0,0,0,2.105-2.662,7.554,7.554,0,0,0,.8-3.482,6.726,6.726,0,0,0-2.065-5.2A7.513,7.513,0,0,0,2099.571-411.007Zm5.4,9.973a7.514,7.514,0,0,1-1.8,2.281,8.191,8.191,0,0,1-2.6,1.493,9.135,9.135,0,0,1-3.062.523h-1.271c-.2,0-.408-.008-.617-.024l.521-12.552c.471-.1.97-.2,1.488-.278a12.884,12.884,0,0,1,1.952-.156,6.215,6.215,0,0,1,4.4,1.537,5.449,5.449,0,0,1,1.656,4.269A6.306,6.306,0,0,1,2104.967-401.034Z" transform="translate(-1888.747 430.186)" fill="#fff"/>
      </g>
    </g>
  </g>
</svg>
