<svg id="play_ic" xmlns="http://www.w3.org/2000/svg" width="145" height="54.572" viewBox="0 0 145 54.572">
  <rect id="Rectangle_4244" data-name="Rectangle 4244" width="134.474" height="48.56" rx="18.064" transform="translate(7.527 3.013)" fill="#aecb5d" style="mix-blend-mode: multiply;isolation: isolate"/>
  <g id="Group_11014" data-name="Group 11014" transform="translate(0 0)">
    <g id="Group_11008" data-name="Group 11008">
      <g id="Group_11005" data-name="Group 11005" transform="translate(1.683 5.048)">
        <g id="Group_11004" data-name="Group 11004" opacity="0.25">
          <rect id="Rectangle_4238" data-name="Rectangle 4238" width="134.621" height="41.549" rx="20.774"/>
        </g>
      </g>
      <g id="Group_11007" data-name="Group 11007">
        <g id="Group_11006" data-name="Group 11006">
          <rect id="Rectangle_4239" data-name="Rectangle 4239" width="136.303" height="43.231" rx="14.049" transform="translate(0.842 0.841)" fill="#fd9830"/>
          <path id="Path_11666" data-name="Path 11666" d="M696.68,126.2a13.767,13.767,0,0,1,13.729,13.723v14.139a13.767,13.767,0,0,1-13.729,13.724H589.48a13.767,13.767,0,0,1-13.729-13.724V139.926A13.766,13.766,0,0,1,589.48,126.2h107.2m0-1.664H589.48a15.408,15.408,0,0,0-15.393,15.387v14.139a15.408,15.408,0,0,0,15.393,15.387h107.2a15.407,15.407,0,0,0,15.393-15.387V139.926a15.407,15.407,0,0,0-15.393-15.387Z" transform="translate(-574.087 -124.539)" fill="#af2771"/>
        </g>
      </g>
      <rect id="Rectangle_4240" data-name="Rectangle 4240" width="127.487" height="38.464" rx="19.232" transform="translate(5.25 1.683)" fill="#fc3"/>
      <path id="Path_11667" data-name="Path 11667" d="M697.54,134.293H590.369c-7.549,0-13.725,13.273-13.725,13.273v-6.59A13.844,13.844,0,0,1,590.369,127.1H697.54a13.844,13.844,0,0,1,13.725,13.881v6.356S705.089,134.293,697.54,134.293Z" transform="translate(-574.961 -125.413)" fill="#f9fdb1"/>
      <path id="Path_11668" data-name="Path 11668" d="M589.168,137.269c1.011,1.751,4.148,1.833,7.007.182s4.357-4.409,3.346-6.16-4.148-1.833-7.007-.182S588.157,135.518,589.168,137.269Z" transform="translate(-579.135 -126.38)" fill="#fff"/>
    </g>
    <g id="Group_11013" data-name="Group 11013" transform="translate(39.976 11.45)">
      <g id="Group_11009" data-name="Group 11009" transform="translate(0 2.061)">
        <path id="Path_11669" data-name="Path 11669" d="M632.388,167.5l-.342-17.71.521-.064c2.541-.312,5.009-.592,7.335-.83a9.068,9.068,0,0,1,1.033-.062,5.908,5.908,0,0,1,2.063.338,4.824,4.824,0,0,1,2.108,1.464,5.27,5.27,0,0,1,1.057,2.3,7.611,7.611,0,0,1,.045,2.7,10.633,10.633,0,0,1-2.54,5.341,10.7,10.7,0,0,1-2.476,2.047,9.816,9.816,0,0,1-2.751,1.126l-.084,4.006Zm5.575-9.844a3.385,3.385,0,0,0,.341-.176,4.078,4.078,0,0,0,.778-.593,3.183,3.183,0,0,0,.471-.578,1.775,1.775,0,0,0,.156-.3c0-.047.009-.109.016-.186a.9.9,0,0,0-.041-.28.314.314,0,0,0-.127-.173.781.781,0,0,0-.434-.074v-.612l-.045.613a3.2,3.2,0,0,0-.989.238Z" transform="translate(-631.46 -148.256)" fill="#fff"/>
        <path id="Path_11670" data-name="Path 11670" d="M640.653,149.2a5.374,5.374,0,0,1,1.874.3,4.244,4.244,0,0,1,1.861,1.282,4.608,4.608,0,0,1,.931,2.024,6.908,6.908,0,0,1,.039,2.458,9.96,9.96,0,0,1-2.391,5,10.084,10.084,0,0,1-2.341,1.928,9.41,9.41,0,0,1-3.031,1.155l-.08,3.814-4.843-.53-.32-16.551q3.8-.465,7.324-.827a8.713,8.713,0,0,1,.977-.058m-3.6,9.023a4.414,4.414,0,0,0,1.251-.487,4.609,4.609,0,0,0,.89-.679,3.771,3.771,0,0,0,.56-.689,1.808,1.808,0,0,0,.24-.52c0-.014.007-.092.02-.233a1.474,1.474,0,0,0-.06-.508.924.924,0,0,0-.34-.5,1.262,1.262,0,0,0-.775-.192h-.056a4.494,4.494,0,0,0-1.531.413l-.2,3.391m3.6-10.242a9.7,9.7,0,0,0-1.1.065c-2.314.237-4.785.515-7.333.827l-1.041.127.021,1.109.32,16.551.021,1.078,1.012.11,4.843.53,1.242.136.028-1.322.06-2.867a10.275,10.275,0,0,0,2.471-1.071,11.3,11.3,0,0,0,2.609-2.151,11.214,11.214,0,0,0,2.689-5.639,8.22,8.22,0,0,0-.051-2.914,5.856,5.856,0,0,0-1.184-2.563,5.4,5.4,0,0,0-2.352-1.636,6.478,6.478,0,0,0-2.255-.371Zm-2.3,7.742a1.869,1.869,0,0,1,.451-.084h.021c-.011.021-.025.044-.04.069a2.549,2.549,0,0,1-.383.463c-.026.026-.052.051-.08.076l.031-.523Z" transform="translate(-631.179 -147.98)" fill="#8b2869"/>
      </g>
      <g id="Group_11010" data-name="Group 11010" transform="translate(16.375 1.876)">
        <path id="Path_11671" data-name="Path 11671" d="M656.224,149.76l7.211-1.07-.518,11.921,4.839-1.071.292,7.273-11.674,1.253Z" transform="translate(-655.643 -148.025)" fill="#fff"/>
        <path id="Path_11672" data-name="Path 11672" d="M662.548,149.116l-.52,11.926,4.9-1.08.24,5.952-10.506,1.123-.14-17.031,6.023-.889m1.215-1.411-1.374.2-6.023.889-1,.148.009,1.07.141,17.031.011,1.337,1.256-.134,10.506-1.123,1.081-.115-.046-1.15-.241-5.952-.058-1.434-1.328.293-3.448.76.451-10.355.064-1.467Z" transform="translate(-655.364 -147.705)" fill="#8b2869"/>
      </g>
      <g id="Group_11011" data-name="Group 11011" transform="translate(28.88 0)">
        <path id="Path_11673" data-name="Path 11673" d="M674.863,165.161l9.7-18.583,11.024,17.728-7.406,2.968-1.755-3.092-3.439.121-.868,3.357Zm9.686-5.614.643-.119-.27-.777Z" transform="translate(-674.021 -145.464)" fill="#fff"/>
        <path id="Path_11674" data-name="Path 11674" d="M684.206,147.275l10.105,16.175-6.283,2.506-1.681-2.949-4.2.147-.821,3.159L675.3,164.25l8.905-16.976m-1.021,12.532,2.381-.442-1-2.865-1.381,3.307m.935-14.877-.923,1.758-8.905,16.976-.674,1.285,1.326.454,6.023,2.064,1.149.394.318-1.227.6-2.3,2.676-.094,1.332,2.337.5.869.9-.359,6.284-2.506,1.343-.536-.789-1.263-10.106-16.175-1.048-1.679Z" transform="translate(-673.618 -144.93)" fill="#8b2869"/>
      </g>
      <g id="Group_11012" data-name="Group 11012" transform="translate(46.102 1.359)">
        <path id="Path_11675" data-name="Path 11675" d="M706.782,166.917v-6.586l-5.256-7.8,5.237-4.346,3.416,5.7,3.675-5.65,5.879,4.281-6.358,8.721-.065,6.605Z" transform="translate(-700.737 -147.346)" fill="#fff"/>
        <path id="Path_11676" data-name="Path 11676" d="M713.623,148.727l4.9,3.554-6.1,8.335-.06,6.093-5.383-.762v-6.219l-5.042-7.446,4.3-3.554,3.542,5.881,3.841-5.881m-7.093-1.786-1,.826-4.3,3.554-.87.719.643.949,4.827,7.129v6.894l1,.141,5.383.762,1.291.183.014-1.377.056-5.684,5.867-8.011.747-1.02-1.007-.73-4.9-3.555-.947-.687-.652,1-2.855,4.371-2.61-4.333-.681-1.131Z" transform="translate(-700.358 -146.941)" fill="#8b2869"/>
      </g>
    </g>
  </g>
</svg>
