<svg xmlns="http://www.w3.org/2000/svg" width="144.5" height="54.391" viewBox="0 0 144.5 54.391">
  <g id="select_btn" transform="translate(-50.851 -402)">
    <rect id="Rectangle_4244" data-name="Rectangle 4244" width="134" height="48.389" rx="18" transform="translate(58.351 405.002)" fill="#aecb5d" style="mix-blend-mode: multiply;isolation: isolate"/>
    <g id="Group_11014" data-name="Group 11014" transform="translate(50.851 402)">
      <g id="Group_11008" data-name="Group 11008" transform="translate(0 0)">
        <g id="Group_11005" data-name="Group 11005" transform="translate(1.677 5.03)">
          <g id="Group_11004" data-name="Group 11004" opacity="0.25">
            <rect id="Rectangle_4238" data-name="Rectangle 4238" width="134.147" height="41.402" rx="20.701"/>
          </g>
        </g>
        <g id="Group_11007" data-name="Group 11007">
          <g id="Group_11006" data-name="Group 11006">
            <rect id="Rectangle_4239" data-name="Rectangle 4239" width="135.823" height="43.079" rx="14" transform="translate(0.839 0.838)" fill="#fd9830"/>
            <path id="Path_11666" data-name="Path 11666" d="M696.249,126.2a13.718,13.718,0,0,1,13.681,13.675v14.089a13.718,13.718,0,0,1-13.681,13.676H589.426a13.718,13.718,0,0,1-13.681-13.676V139.872A13.718,13.718,0,0,1,589.426,126.2H696.249m0-1.658H589.426a15.354,15.354,0,0,0-15.339,15.333v14.089a15.354,15.354,0,0,0,15.339,15.333H696.249a15.353,15.353,0,0,0,15.338-15.333V139.872a15.353,15.353,0,0,0-15.338-15.333Z" transform="translate(-574.087 -124.539)" fill="#af2771"/>
          </g>
        </g>
        <rect id="Rectangle_4240" data-name="Rectangle 4240" width="127.038" height="38.328" rx="19.164" transform="translate(5.231 1.677)" fill="#fc3"/>
        <path id="Path_11667" data-name="Path 11667" d="M697.114,134.268H590.321c-7.522,0-13.677,13.227-13.677,13.227v-6.567A13.8,13.8,0,0,1,590.321,127.1H697.114a13.8,13.8,0,0,1,13.677,13.832v6.334S704.636,134.268,697.114,134.268Z" transform="translate(-574.967 -125.419)" fill="#f9fdb1"/>
        <path id="Path_11668" data-name="Path 11668" d="M589.167,137.243c1.007,1.745,4.134,1.826,6.983.182s4.341-4.393,3.334-6.138-4.134-1.826-6.982-.182S588.16,135.5,589.167,137.243Z" transform="translate(-579.169 -126.392)" fill="#fff"/>
      </g>
    </g>
    <g id="Group_12040" data-name="Group 12040" transform="translate(-585.803 -8.03)">
      <path id="Path_13120" data-name="Path 13120" d="M678.467,435.469a7.439,7.439,0,0,1-.626,3.157,6.3,6.3,0,0,1-1.714,2.247,7.342,7.342,0,0,1-2.543,1.344,10.607,10.607,0,0,1-3.131.448,6.581,6.581,0,0,1-1.416-.171q-.771-.172-1.562-.429t-1.522-.553q-.732-.3-1.3-.56l.58-5.43a9.268,9.268,0,0,0,2.484,1.022,10.794,10.794,0,0,0,2.682.349q.25,0,.606-.02a2.857,2.857,0,0,0,.679-.119,1.467,1.467,0,0,0,.547-.3.716.716,0,0,0,.224-.567.623.623,0,0,0-.158-.428,1.191,1.191,0,0,0-.409-.29,2.524,2.524,0,0,0-.567-.172q-.316-.059-.619-.086t-.567-.027h-.422a5.217,5.217,0,0,1-2.063-.4,4.682,4.682,0,0,1-1.595-1.1,4.989,4.989,0,0,1-1.035-1.674,5.85,5.85,0,0,1-.369-2.1,6.072,6.072,0,0,1,.626-2.788,6.5,6.5,0,0,1,1.674-2.1,7.589,7.589,0,0,1,2.405-1.325,8.669,8.669,0,0,1,2.807-.461q.646,0,1.331.046a13.034,13.034,0,0,1,2.689.468,7.86,7.86,0,0,1,1.226.461l-.5,5.351a16.041,16.041,0,0,0-1.878-.507,9.4,9.4,0,0,0-1.918-.2q-.171,0-.442.007t-.567.04a5.875,5.875,0,0,0-.6.1,2.542,2.542,0,0,0-.54.178,1.043,1.043,0,0,0-.382.3.68.68,0,0,0,.086.9,1.432,1.432,0,0,0,.527.277,3.724,3.724,0,0,0,.712.138q.389.04.771.046t.712,0a3.95,3.95,0,0,1,.54.019,5.381,5.381,0,0,1,1.9.448,4.4,4.4,0,0,1,1.43,1.015,4.3,4.3,0,0,1,.9,1.509A5.763,5.763,0,0,1,678.467,435.469Z" transform="translate(0 0)" fill="#fff" stroke="#731a57" stroke-width="1"/>
      <path id="Path_13121" data-name="Path 13121" d="M717.692,424.415q-.079,1.239-.145,2.451t-.172,2.451l-5.588.29-.132,1.661h3.928l-.29,4.086-3.954.132-.132,1.925H716.8q-.079,1.45-.165,2.88t-.151,2.867l-11.361.264.422-19.006Z" transform="translate(-25.913 -0.939)" fill="#fff" stroke="#731a57" stroke-width="1"/>
      <path id="Path_13122" data-name="Path 13122" d="M752.8,435.766l-.554,5.852-11.1.87q.079-4.6.178-9.147t.244-9.147h6.854q-.3,2.887-.58,5.767t-.4,5.806q.619.026,1.225.027H749.9q.738,0,1.45-.013T752.8,435.766Z" transform="translate(-48.986 -0.798)" fill="#fff" stroke="#731a57" stroke-width="1"/>
      <path id="Path_13123" data-name="Path 13123" d="M787.588,424.415q-.079,1.239-.145,2.451t-.172,2.451l-5.588.29-.132,1.661h3.928l-.29,4.086-3.954.132-.132,1.925h5.589q-.079,1.45-.165,2.88t-.151,2.867l-11.361.264.422-19.006Z" transform="translate(-70.674 -0.939)" fill="#fff" stroke="#731a57" stroke-width="1"/>
      <path id="Path_13124" data-name="Path 13124" d="M822.356,424.513l-.738,5.562a4.694,4.694,0,0,0-.764-.145,7.459,7.459,0,0,0-.764-.04,6.609,6.609,0,0,0-1.858.257,4.623,4.623,0,0,0-1.562.784,3.853,3.853,0,0,0-1.081,1.318,4.048,4.048,0,0,0-.4,1.858,2.962,2.962,0,0,0,.218,1.186,2.2,2.2,0,0,0,.613.831,2.565,2.565,0,0,0,.936.488,4.215,4.215,0,0,0,1.186.158,5.158,5.158,0,0,0,1.015-.106,8.609,8.609,0,0,0,1.042-.277,9.776,9.776,0,0,0,1-.4q.488-.224.9-.461l-.527,6.195a8.274,8.274,0,0,1-1.114.468q-.6.2-1.233.356a11.609,11.609,0,0,1-1.265.23,9.754,9.754,0,0,1-1.213.079,7.811,7.811,0,0,1-7.322-4.87,8.153,8.153,0,0,1-.613-3.17,13.736,13.736,0,0,1,.646-4.25,10.4,10.4,0,0,1,1.9-3.5,8.911,8.911,0,0,1,3.1-2.372,9.919,9.919,0,0,1,4.264-.87,12.466,12.466,0,0,1,1.865.145A6.189,6.189,0,0,1,822.356,424.513Z" transform="translate(-92.315 -0.564)" fill="#fff" stroke="#731a57" stroke-width="1"/>
      <path id="Path_13125" data-name="Path 13125" d="M861.67,424.854l-.132,5.589-3.928.158-1,12.495-5.562.29.027-12.495-3.928.211.158-6.221Z" transform="translate(-116.867 -1.221)" fill="#fff" stroke="#731a57" stroke-width="1"/>
    </g>
  </g>
</svg>
