<svg xmlns="http://www.w3.org/2000/svg" width="42" height="44.628" viewBox="0 0 42 44.628">
  <g id="sound_on_ic" data-name="sound on_ic" transform="translate(-166 -607.372)">
    <circle id="Ellipse_1585" data-name="Ellipse 1585" cx="18" cy="18" r="18" transform="translate(169 613)" fill="#82ad0c" opacity="0.522" style="mix-blend-mode: multiply;isolation: isolate"/>
    <g id="Group_11084" data-name="Group 11084" transform="translate(-687.792 322.991)">
      <g id="Group_11081" data-name="Group 11081" transform="translate(856.333 284.381)">
        <circle id="Ellipse_1584" data-name="Ellipse 1584" cx="17.946" cy="17.946" r="17.946" transform="translate(0 1.736)" fill="#e17f16"/>
        <path id="Path_11760" data-name="Path 11760" d="M874.441,320.176a17.9,17.9,0,1,1,18.009-17.786A17.9,17.9,0,0,1,874.441,320.176Z" transform="translate(-856.533 -284.381)" fill="#ffb336"/>
        <path id="Path_11761" data-name="Path 11761" d="M872.031,289.68c-3.3,2.71.132,6.117,2.6,3.944a13.9,13.9,0,0,1,8.05-3.336,12.287,12.287,0,0,1,8.151,2.511c1.793,1.378,4.93-1.528,2.559-3.7a17.777,17.777,0,0,0-10.341-3.24A18.211,18.211,0,0,0,872.031,289.68Z" transform="translate(-865.241 -285.3)" fill="#ffeb95" opacity="0.3" style="mix-blend-mode: overlay;isolation: isolate"/>
        <path id="Path_11762" data-name="Path 11762" d="M883.2,322.723a12.583,12.583,0,1,1,12.661-12.5A12.584,12.584,0,0,1,883.2,322.723Z" transform="translate(-865.256 -292.568)" fill="#ff9c36"/>
        <path id="Path_11763" data-name="Path 11763" d="M883.347,299.132a12.583,12.583,0,0,1,12.482,11.874c.017-.261.03-.522.031-.787a12.583,12.583,0,0,0-25.166-.157c0,.265.008.526.022.788A12.583,12.583,0,0,1,883.347,299.132Z" transform="translate(-865.256 -292.568)" fill="#e17f16"/>
        <path id="Path_11764" data-name="Path 11764" d="M874.66,285.038a17.9,17.9,0,0,1,17.783,17.681c0-.109.006-.218.007-.328a17.9,17.9,0,0,0-35.8-.223c0,.109,0,.219,0,.328A17.9,17.9,0,0,1,874.66,285.038Z" transform="translate(-856.533 -284.381)" fill="#ffeb95"/>
        <path id="Path_11765" data-name="Path 11765" d="M883.19,343.994a12.581,12.581,0,0,1-12.5-12.2c-.006.153-.014.305-.015.459a12.583,12.583,0,0,0,25.166.157c0-.154,0-.307-.009-.459A12.581,12.581,0,0,1,883.19,343.994Z" transform="translate(-865.247 -313.839)" fill="#ffeb95"/>
        <path id="Path_11766" data-name="Path 11766" d="M883.127,324.472c-6.985-.044-12.614-5.458-12.572-12.094s5.738-11.98,12.722-11.936,12.613,5.459,12.572,12.094S890.111,324.516,883.127,324.472Z" transform="translate(-865.169 -294.36)" fill="#ff9c36"/>
        <path id="Path_11767" data-name="Path 11767" d="M874.517,335.01c-7.237-.045-13.668-2.742-17.813-6.907-.03.406-.048.816-.05,1.23a17.9,17.9,0,0,0,35.8.223q0-.62-.036-1.231C888.219,332.44,881.755,335.055,874.517,335.01Z" transform="translate(-856.533 -311.547)" opacity="0.1" style="mix-blend-mode: color-burn;isolation: isolate"/>
      </g>
      <g id="Group_11083" data-name="Group 11083" transform="translate(862.987 293.552)">
        <g id="Group_11082" data-name="Group 11082" transform="translate(0 0)">
          <path id="Path_11768" data-name="Path 11768" d="M890.326,317.064a1.109,1.109,0,0,0,.465-.1l2.542-1.171a1.111,1.111,0,0,0-.93-2.019l-2.542,1.17a1.112,1.112,0,0,0,.465,2.121Zm-3.583-4.979c-2.364,0-5.229,2.185-6.57,3.873h-1.811a4.456,4.456,0,1,0,0,8.913h1.985c1.372,1.648,4.1,3.689,6.4,3.775,0,0,1.2-.056,1.222-1.167.093-4.019.24-12.17,0-14.226A1.206,1.206,0,0,0,886.743,312.085Zm6.6,12.918-2.591-.992a1.111,1.111,0,1,0-.794,2.076l2.59.992a1.112,1.112,0,0,0,.795-2.076Zm-3.028-3.4h2.709a1.111,1.111,0,1,0,0-2.223h-2.709a1.111,1.111,0,0,0,0,2.223Z" transform="translate(-873.906 -310.765)" fill="#d16a09"/>
          <path id="Path_11769" data-name="Path 11769" d="M890.326,313.58a1.108,1.108,0,0,0,.465-.1l2.542-1.17a1.112,1.112,0,0,0-.93-2.019l-2.542,1.171a1.111,1.111,0,0,0,.465,2.121Zm-3.583-4.979c-2.364,0-5.229,2.185-6.57,3.873h-1.811a4.456,4.456,0,1,0,0,8.912h1.985c1.372,1.648,4.1,3.689,6.4,3.775,0,0,1.2-.056,1.222-1.167.093-4.02.24-12.17,0-14.226A1.206,1.206,0,0,0,886.743,308.6Zm6.6,12.918-2.591-.991a1.111,1.111,0,1,0-.794,2.076l2.59.992a1.112,1.112,0,0,0,.795-2.076Zm-3.028-3.4h2.709a1.111,1.111,0,1,0,0-2.223h-2.709a1.111,1.111,0,0,0,0,2.223Z" transform="translate(-873.906 -308.6)" fill="#f2e6c9"/>
        </g>
        <path id="Path_11770" data-name="Path 11770" d="M877,323.71a1.124,1.124,0,1,0,1.124-1.124A1.124,1.124,0,0,0,877,323.71Z" transform="translate(-875.83 -317.29)" fill="#fff"/>
        <path id="Path_11771" data-name="Path 11771" d="M915.423,328.842h2.709a1.107,1.107,0,0,1,1,.628,1.094,1.094,0,0,0,.115-.484,1.111,1.111,0,0,0-1.112-1.111h-2.709a1.1,1.1,0,0,0-1,1.6A1.108,1.108,0,0,1,915.423,328.842Z" transform="translate(-899.012 -320.576)" fill="#fff"/>
        <path id="Path_11772" data-name="Path 11772" d="M914.446,315.558a1.1,1.1,0,0,1,.532-.53l2.542-1.171a1.111,1.111,0,0,1,1.461.523,1.107,1.107,0,0,0-1.461-1.49l-2.542,1.171a1.112,1.112,0,0,0-.545,1.475C914.437,315.543,914.442,315.55,914.446,315.558Z" transform="translate(-899.023 -311.202)" fill="#fff"/>
        <path id="Path_11773" data-name="Path 11773" d="M886.743,308.6c-2.364,0-5.229,2.185-6.57,3.873h-1.811a4.456,4.456,0,0,0-4.457,4.456,4.535,4.535,0,0,0,.027.484,4.456,4.456,0,0,1,4.429-3.972h1.811c1.341-1.687,4.205-3.873,6.57-3.873a1.206,1.206,0,0,1,1.222,1.167c.089.764.125,2.37.13,4.292.005-2.341-.026-4.37-.13-5.259A1.206,1.206,0,0,0,886.743,308.6Z" transform="translate(-873.906 -308.6)" fill="#fff"/>
        <path id="Path_11774" data-name="Path 11774" d="M918.519,340.967l-2.59-.991a1.109,1.109,0,0,0-1.393,1.525,1.109,1.109,0,0,1,1.393-.557l2.59.991a1.105,1.105,0,0,1,.6.554c.014-.028.029-.056.041-.086A1.112,1.112,0,0,0,918.519,340.967Z" transform="translate(-899.079 -328.049)" fill="#fff"/>
      </g>
    </g>
  </g>
</svg>
